<?xml version="1.0" encoding="UTF-8"?><svg id="a" xmlns="http://www.w3.org/2000/svg" xmlns:xlink="http://www.w3.org/1999/xlink" viewBox="0 0 598.7 743.66"><defs><style>.d{fill:#fff;}.e{fill:url(#c);}.f{fill:#333;}.g{fill:gray;}.h{clip-path:url(#b);}.i{fill:#9d7a78;}.j{fill:none;}.k{fill:#1a1a1a;}</style><clipPath id="b"><path class="j" d="M598.7,360.94c0,158.74-171.89,322.4-232.11,374.86-11.85,10.32-29.43,10.51-41.48,.43-60.58-50.66-231.71-208.54-231.71-375.29,0-139.53,113.12-252.65,252.65-252.65s252.65,113.12,252.65,252.65Z"/></clipPath><radialGradient id="c" cx="219.23" cy="164.82" fx="126.06" fy="334.92" r="193.95" gradientTransform="translate(112.1 -87.67) rotate(30.07)" gradientUnits="userSpaceOnUse"><stop offset="0" stop-color="#000"/><stop offset="1" stop-color="#fff" stop-opacity="0"/></radialGradient></defs><path class="g" d="M598.7,360.94c0,158.74-171.89,322.4-232.11,374.86-11.85,10.32-29.43,10.51-41.48,.43-60.58-50.66-231.71-208.54-231.71-375.29,0-139.53,113.12-252.65,252.65-252.65s252.65,113.12,252.65,252.65Z"/><path class="f" d="M583.83,365.75c0,153.93-158.56,312.58-216.72,365.59-12.01,10.95-30.32,11.15-42.55,.44-58.51-51.23-216.28-204.37-216.28-366.03,0-136.67,108.66-247.46,237.77-247.46s237.77,110.79,237.77,247.46Z"/><circle class="k" cx="345.8" cy="354.67" r="185.86"/><g class="h"><ellipse class="e" cx="219.23" cy="164.82" rx="242" ry="129" transform="translate(-53.08 132.04) rotate(-30.07)"/></g><circle class="d" cx="345.8" cy="354.67" r="156.82"/><g><path class="i" d="M301.71,247.82c-7.93,7.47-11.96,20.05-11.65,31.74,.6,22.55,23.76,26.43,35.07,16,6.29-5.81,9.99-17.23,8.07-30.03-4.4-29.3-24.36-24.42-31.49-17.7Z"/><path class="i" d="M245.51,295.57c-7.04,7.35-10.59,19.74-10.29,31.26,.59,22.24,21.21,26.13,31.25,15.86,5.59-5.71,8.85-16.97,7.1-29.59-3.99-28.9-21.74-24.14-28.07-17.54Z"/><path class="i" d="M386.68,243.96c8.32,7.04,12.24,21.02,12.55,32.71,.6,22.55-22.33,27.65-34.18,17.83-6.59-5.47-9.71-17.92-8.47-30.8,2.85-29.49,22.62-26.06,30.1-19.73Z"/><path class="i" d="M442.13,290.37c7.42,6.96,12.03,19.15,11.92,30.68-.21,22.67-19.8,27.21-30.37,17.49-5.88-5.41-9.34-14.57-8.17-27.25,2.51-27.06,19.94-27.17,26.61-20.92Z"/><path class="i" d="M294.17,368.08c5.06-21.89,22.72-39.68,50.49-40.82,27.77-1.14,49.65,18.83,54.16,36.85,0,0,27.2-7.57,34.06,23.27,6.7,30.14-16.14,44.75-36.01,40.03,0,0-9.64,16.37-47.48,17.77-34.62,1.28-48.78-16.44-48.78-16.44,0,0-31.14,10.9-39.92-16.27-9.79-30.3,15.61-49.57,33.48-44.4Z"/></g></svg>